inDegrees=yes
name=ik_S53_A11_T02
DataType=double
version=3
OpenSimVersion=4.3-2021-08-27-4bc7ad9
endheader
time	pelvis_tilt	pelvis_list	pelvis_rotation	pelvis_tx	pelvis_ty	pelvis_tz	hip_flexion_r	hip_adduction_r	hip_rotation_r	knee_angle_r	knee_angle_r_beta	ankle_angle_r	subtalar_angle_r	mtp_angle_r	hip_flexion_l	hip_adduction_l	hip_rotation_l	knee_angle_l	knee_angle_l_beta	ankle_angle_l	subtalar_angle_l	mtp_angle_l	lumbar_extension	lumbar_bending	lumbar_rotation	arm_flex_r	arm_add_r	arm_rot_r	elbow_flex_r	pro_sup_r	wrist_flex_r	wrist_dev_r	arm_flex_l	arm_add_l	arm_rot_l	elbow_flex_l	pro_sup_l	wrist_flex_l	wrist_dev_l
0	0	0	0	0	0.9399999999999999	0	0	0	0	0	0	0	0	0	0	0	0	0	0	0	0	0	0	0	0	0	0	0	0	89.99999999963507	0	0	0	0	0	0	89.99999999869995	0	0
0.01666666666666667	-1.400327142735841	-1.708393202024575	24.67837303202014	0	0.9399999999999999	0	2.341201716670789	-1.097208358916291	-0.7883470412838345	3.651222227078605	0.06372584958452172	0	0	0	2.341201716670789	-1.097208358916291	-0.7883470412838345	3.651222227078605	0.06372584958452172	0	0	0	-1.722035558488299	0.2129946272772302	9.43796324482971	24.28664398707174	-7.039426107348135	-14.49059847740902	4.466232459074882	126.3320868659492	0	0	13.27408308610863	-13.87481599506096	-7.74348542130296	13.78003294820096	124.2774888989401	0	0
0.03333333333333333	-1.403618409843036	-1.694734078092048	24.92920328830501	0	0.9399999999999999	0	4.560029486066806	-2.149453052478126	-1.56290294402677	6.096423668354082	0.1064026656092896	0	0	0	4.560029486066806	-2.149453052478126	-1.56290294402677	6.096423668354082	0.1064026656092896	0	0	0	-1.737009863157649	0.205544932189591	9.227073440209306	24.28269522230587	-7.040850495250913	-14.51532199623823	4.495177870917074	126.3537438945259	0	0	13.31324784658332	-13.86458252276401	-7.68699356355805	13.78791914787449	124.246179673933	0	0
0.05	-1.4234343511363	-1.661418610335151	25.1014402979931	0	0.9399999999999999	0	6.304176473997488	-2.968033827379913	-2.16049118870662	8.161304694717872	0.1424416381812975	0	0	0	6.304176473997488	-2.968033827379913	-2.16049118870662	8.161304694717872	0.1424416381812975	0	0	0	-1.732025342281344	0.1917348164738097	9.108265315582459	24.25415464063622	-7.061592428655791	-14.58858835391545	4.507011023829913	126.3895852296319	0	0	13.24425130108017	-13.88297788555519	-7.771825354596148	13.85868253817241	124.3191459933752	0	0
0.06666666666666667	-1.427218812678133	-1.638018978835474	25.18723170028796	0	0.9399999999999999	0	7.06503501078752	-3.304413622814713	-2.419293034462911	9.007360738190327	0.1572081017962881	0	0	0	7.06503501078752	-3.304413622814713	-2.419293034462911	9.007360738190327	0.1572081017962881	0	0	0	-1.724711728632821	0.1993371328793057	9.063804756033583	24.22538838778381	-7.077722453756458	-14.64690305191523	4.517434216726441	126.4106535939201	0	0	13.20652317778145	-13.88669409677172	-7.804205324623004	13.84997887649361	124.3365645133106	0	0
0.08333333333333333	-1.443033380383842	-1.630023975412402	25.24964118989915	0	0.9399999999999999	0	7.352647218670716	-3.421937345365764	-2.516561866398962	9.295937222518891	0.1622447115916514	0	0	0	7.352647218670716	-3.421937345365764	-2.516561866398962	9.295937222518891	0.1622447115916514	0	0	0	-1.734906013859357	0.2043612331011567	9.058159332099484	24.18562825622402	-7.097457349922465	-14.66258817886998	4.58919004187219	126.3777111325557	0	0	13.16017467617444	-13.87928924857401	-7.799834499230916	13.95233114253249	124.336696620647	0	0
0.09999999999999999	-1.438639258478784	-1.600649042417703	25.30292250734376	0	0.9399999999999999	0	7.553635077451434	-3.503490381934729	-2.584245776002345	9.499564181863837	0.1657986724780454	0	0	0	7.553635077451434	-3.503490381934729	-2.584245776002345	9.499564181863837	0.1657986724780454	0	0	0	-1.718613545279764	0.2201876163309856	9.056012097548951	24.14591594219407	-7.126760444833709	-14.68875426483861	4.581452779326837	126.3619211021244	0	0	13.11793566558885	-13.84007393187356	-7.762400875561078	13.96738441703955	124.335271761677	0	0
0.1166666666666667	-1.417540238143206	-1.560939361619641	25.36200443660909	0	0.9399999999999999	0	7.737821712824847	-3.5745770107708	-2.645925681160318	9.676080847449942	0.1688794694771646	0	0	0	7.737821712824847	-3.5745770107708	-2.645925681160318	9.676080847449942	0.1688794694771646	0	0	0	-1.681887928061946	0.2395638621956437	9.053644750866892	24.11234657886677	-7.138136794188306	-14.69792166328062	4.471556404248146	126.3639700189557	0	2.12395672426537e-50	13.04191130809284	-13.82154195343125	-7.788826765689249	13.9063012992089	124.3624087549998	0	2.12395672426537e-50
0.1333333333333333	-1.423631282348145	-1.535854254553578	25.40421917106518	0	0.9399999999999999	0	7.945907507447596	-3.655683548947142	-2.715521423924467	9.879416818492595	0.1724283516595988	0	0	0	7.945907507447596	-3.655683548947142	-2.715521423924467	9.879416818492595	0.1724283516595988	0	0	0	-1.676508876932499	0.2583668062214534	9.02979486843833	24.09224305874029	-7.188316556379514	-14.72492153138149	4.484778801049074	126.3990714697937	0	0	13.00085350097618	-13.83212530992074	-7.906491293287018	13.84774977013149	124.4441066927694	0	0
0.15	-1.433580572653386	-1.537292880423742	25.42560461171185	0	0.9399999999999999	0	8.113561376600055	-3.721729819728861	-2.771625944981276	10.04527498424316	0.1753231227432646	0	0	0	8.113561376600055	-3.721729819728861	-2.771625944981276	10.04527498424316	0.1753231227432646	0	0	0	-1.686090909457323	0.2564122341906481	9.002975754040326	24.06578551974333	-7.139137353130762	-14.73341383579377	4.510757764233472	126.4375659014881	0	0	12.9779055761381	-13.84594126317319	-8.047593998778758	13.82073575519697	124.5639908768613	0	0
0.1666666666666667	-1.436497312133881	-1.519311487721552	25.47396082569494	0	0.9399999999999999	0	8.327408430363842	-3.804467549889046	-2.842816851030485	10.25574109190735	0.1789964492858616	0	0	0	8.327408430363842	-3.804467549889046	-2.842816851030485	10.25574109190735	0.1789964492858616	0	0	0	-1.680686213080582	0.2673505662620649	8.994517806193146	24.04793981143023	-7.165103306925255	-14.73888209278874	4.507030906990366	126.4100281084883	0	0	12.92292311669438	-13.86090987085872	-8.088094572059374	13.83701386570635	124.5981786504251	0	0
0.1833333333333333	-1.435401007908404	-1.492475879611454	25.50375886324682	0	0.9399999999999999	0	8.337394614913137	-3.809063470296692	-2.846214896883767	10.26750443565197	0.1792017583652491	0	0	0	8.337394614913137	-3.809063470296692	-2.846214896883767	10.26750443565197	0.1792017583652491	0	0	0	-1.668149637104694	0.2908820454853439	8.995583054597432	23.98691315531303	-7.131474309967224	-14.78494960669454	4.501148459909063	126.4136739998368	0	5.38806921148701e-36	12.86933299297065	-13.8289669311634	-8.187162048969633	13.77359807272642	124.7143997691657	0	5.38806921148701e-36
0.2	-1.437782453677946	-1.469493860724772	25.52945720947658	0	0.9399999999999999	0	8.530368970793418	-3.883674328961432	-2.910329693624096	10.45866327359114	0.182538109481574	0	0	0	8.530368970793418	-3.883674328961432	-2.910329693624096	10.45866327359114	0.182538109481574	0	0	0	-1.660437173176817	0.3071822754261502	8.973761242826807	23.95079134417441	-7.134805826619698	-14.7980952554712	4.515159139479024	126.4241224995666	0	0	12.78732071763192	-13.84191231649947	-8.260249142157276	13.78648639012304	124.728714456832	0	0
0.2166666666666666	-1.440270286067468	-1.45511287043804	25.56430772631641	0	0.9399999999999999	0	8.772303784605718	-3.979191108471356	-2.990715557082257	10.70625608155821	0.1868594191848573	0	0	0	8.772303784605718	-3.979191108471356	-2.990715557082257	10.70625608155821	0.1868594191848573	0	0	0	-1.656653028615089	0.3139003354306828	8.945538458415287	23.88969970822401	-7.115551978124771	-14.83780562059577	4.595496037725343	126.4680197991506	0	0	12.71519963630359	-13.82540484290925	-8.318907574654693	13.87721616818641	124.7685708397281	0	0
0.2333333333333333	-1.430932466840771	-1.421769812139673	25.59556137275634	0	0.9399999999999999	0	8.904669009005428	-4.030293299191262	-3.034493391982243	10.83974293321837	0.1891892042544485	0	0	0	8.904669009005428	-4.030293299191262	-3.034493391982243	10.83974293321837	0.1891892042544485	0	0	0	-1.634370678496348	0.3347554265303124	8.919727939276582	23.86409652845291	-7.134841232898508	-14.91287276076669	4.535992455195522	126.6205732723736	0	0	12.67352936250428	-13.81491064301567	-8.428520472004331	13.77648568757466	124.9019708351612	0	0
0.25	-1.407030240310102	-1.389242023681732	25.61270126384917	0	0.9399999999999999	0	9.064732462525457	-4.091683906131975	-3.087258441588165	11.0018464239251	0.1920184438962568	0	0	0	9.064732462525457	-4.091683906131975	-3.087258441588165	11.0018464239251	0.1920184438962568	0	0	0	-1.599257098135289	0.3491373848611988	8.90188743835051	23.80350829114611	-7.137897902311557	-14.88158778115977	4.516568449055288	126.5746903944796	0	0	12.57389357412001	-13.81275629134088	-8.412130907929312	13.75365905146771	124.8746219699176	0	0
0.2666666666666667	-1.407057047535583	-1.382602533492596	25.63492089547742	0	0.9399999999999999	0	9.245244354468145	-4.159828439666771	-3.146583335609035	11.18194013299978	0.1951616720817388	0	0	0	9.245244354468145	-4.159828439666771	-3.146583335609035	11.18194013299978	0.1951616720817388	0	0	0	-1.596422606375578	0.3496934422630499	8.879161723134736	23.79309467690985	-7.142418246640954	-14.87842472857255	4.516756942658598	126.5896898535413	0	0	12.56641948492994	-13.8418664818761	-8.460390292521481	13.72492772818116	124.9054306026802	0	0
0.2833333333333333	-1.405176401051094	-1.356610956064643	25.65717737734591	0	0.9399999999999999	0	9.496817093673615	-4.256998171467435	-3.229393963581666	11.43988278579101	0.1996636206542743	0	0	0	9.496817093673615	-4.256998171467435	-3.229393963581666	11.43988278579101	0.1996636206542743	0	0	0	-1.584172976739378	0.366557070807329	8.855572605080265	23.70905417587574	-7.15226289743768	-14.90498252937167	4.604447824924111	126.6046968501608	0	0	12.50437833526806	-13.82646305156087	-8.500465185227608	13.78008001681363	124.9112339692371	0	0
0.3	-1.390006622991133	-1.344560788625724	25.66511656818176	0	0.9399999999999999	0	9.653237516270897	-4.319184490004575	-3.281023957805996	11.60581497599145	0.2025596837083174	0	0	0	9.653237516270897	-4.319184490004575	-3.281023957805996	11.60581497599145	0.2025596837083174	0	0	0	-1.564917960292618	0.3695722224447963	8.848353827366472	23.64226373046894	-7.137520254692997	-14.9386984699585	4.634841849699606	126.5912106259898	0	0	12.46341260519502	-13.83112611639033	-8.516891979770859	13.76324778024336	124.9164295635574	0	0
0.3166666666666667	-1.390782664834732	-1.334353409618803	25.69159534174912	0	0.9399999999999999	0	9.846701699476677	-4.391965151662247	-3.344136911334318	11.80332772012129	0.2060069314080323	0	0	0	9.846701699476677	-4.391965151662247	-3.344136911334318	11.80332772012129	0.2060069314080323	0	0	0	-1.561933710991059	0.3738716599798294	8.828659676210409	23.62088904903909	-7.146343577060479	-14.93507716654985	4.631260502434102	126.5733905670573	0	0	12.46723577056885	-13.83240750586306	-8.511212982518446	13.79147629747849	124.8749138304258	0	0
